<svg width="22" height="18" fill="none" xmlns="http://www.w3.org/2000/svg"><path d="M6.919 18C15.22 18 19.76 11.075 19.76 5.071c0-.197-.004-.392-.013-.587A9.218 9.218 0 0 0 22 2.13a8.963 8.963 0 0 1-2.592.715A4.554 4.554 0 0 0 21.393.333a9.008 9.008 0 0 1-2.866 1.103A4.495 4.495 0 0 0 15.232 0c-2.493 0-4.514 2.035-4.514 4.544 0 .356.04.703.117 1.036C7.084 5.39 3.757 3.582 1.53.832A4.551 4.551 0 0 0 .92 3.116c0 1.577.797 2.968 2.008 3.783A4.457 4.457 0 0 1 .884 6.33v.058c0 2.2 1.555 4.038 3.62 4.455a4.5 4.5 0 0 1-2.038.078 4.523 4.523 0 0 0 4.217 3.156 9.02 9.02 0 0 1-5.606 1.945C.713 16.022.353 16 0 15.959A12.716 12.716 0 0 0 6.919 18Z" fill="#fff"/></svg>