<svg width="20" height="20" fill="none" xmlns="http://www.w3.org/2000/svg"><path d="M5.848 20A5.854 5.854 0 0 1 0 14.152V5.848A5.854 5.854 0 0 1 5.848 0h8.304A5.854 5.854 0 0 1 20 5.848v8.304A5.854 5.854 0 0 1 14.152 20H5.848ZM1.864 5.848v8.304a3.988 3.988 0 0 0 3.984 3.984h8.304a3.988 3.988 0 0 0 3.983-3.984V5.848a3.988 3.988 0 0 0-3.983-3.984H5.848a3.988 3.988 0 0 0-3.984 3.984ZM4.83 10c0-2.85 2.32-5.17 5.17-5.17s5.17 2.32 5.17 5.17-2.32 5.17-5.17 5.17S4.83 12.85 4.83 10Zm1.865 0A3.308 3.308 0 0 0 10 13.305 3.308 3.308 0 0 0 13.305 10 3.309 3.309 0 0 0 10 6.695 3.309 3.309 0 0 0 6.695 10Zm7.403-5.334a1.246 1.246 0 1 1 2.492 0 1.246 1.246 0 0 1-2.492 0Z" fill="#fff"/></svg>