<svg width="22" height="22" fill="none" xmlns="http://www.w3.org/2000/svg"><path d="M9.281 22a10.991 10.991 0 0 1-6.613-3.707A11.103 11.103 0 0 1 0 11.067c0-2.956 1.144-5.735 3.222-7.825A10.895 10.895 0 0 1 11 0c2.938 0 5.7 1.151 7.778 3.242A11.028 11.028 0 0 1 22 11.067c0 2.654-.948 5.22-2.669 7.226A10.983 10.983 0 0 1 12.72 22l-.001-7.733h2.563l.487-3.199h-3.05V8.971c.005-.638.244-1.708 1.793-1.708h1.386V4.539c-.009-.001-1.27-.216-2.462-.216-2.602 0-4.155 1.61-4.155 4.306v2.438H6.488v3.2h2.793V22Z" fill="#fff"/></svg>