<svg width="69" height="64" fill="none" xmlns="http://www.w3.org/2000/svg"><g opacity=".2" fill="#0D96A0"><path d="M61.49 54.308c-2.239 3.791-4.478 6.677-7.974 3.535-1.799-1.617-1.378-4.548-1.676-6.34-.36-2.15-1.168-3.132.037-4.845 1.173-1.672 3.975-1.127 6.293-1.137 2.459-.01 4.178-.69 6.018 1.476 1.637 1.925 1.099 3.778-2.699 7.311ZM42.593 43.825c1.942-1.965 9.814 2.258 5.64 5.408-3.105 2.342-7.57-3.34-5.64-5.408Z"/><path d="M44.166 51.633c1.82-2.073 9.857 1.763 5.89 5.146-2.956 2.514-7.974-3.095-5.89-5.146ZM46.11 39.302c-.982 2.614 5.902 8.379 7.057 3.189.861-3.865-6.294-5.939-7.057-3.189ZM55.025 38.173c-1.905 1.998 2.04 8.802 5.77 5.272 2.809-2.66-4.044-7.403-5.77-5.272ZM24 23.376c-2.239 3.791-4.478 6.677-7.974 3.535-1.799-1.617-1.378-4.548-1.676-6.34-.36-2.15-1.168-3.132.036-4.844 1.173-1.672 3.976-1.128 6.294-1.137 2.459-.011 4.178-.69 6.018 1.475 1.637 1.925 1.099 3.779-2.699 7.311ZM5.103 12.893c1.942-1.965 9.814 2.258 5.64 5.409-3.106 2.341-7.57-3.34-5.64-5.409Z"/><path d="M6.675 20.701c1.822-2.073 9.857 1.763 5.89 5.146-2.955 2.515-7.973-3.095-5.89-5.146ZM8.62 8.37c-.982 2.614 5.902 8.379 7.057 3.189.861-3.864-6.295-5.939-7.057-3.189ZM17.534 7.24c-1.904 2 2.041 8.803 5.771 5.273 2.809-2.66-4.044-7.403-5.77-5.272ZM47.91 23.967c-4.098 1.61-7.64 2.505-8.46-2.123-.422-2.382 1.713-4.433 2.582-6.028 1.04-1.915 1.008-3.187 3.012-3.795 1.953-.596 3.827 1.559 5.659 2.978 1.944 1.505 3.717 2.03 3.834 4.868.104 2.525-1.46 3.654-6.628 4.1ZM39.473 4.073c2.74-.353 6.343 7.82 1.115 7.734-3.89-.067-3.91-7.293-1.115-7.734Z"/><path d="M35.905 11.194c2.711-.513 6.682 7.457 1.473 7.68-3.877.163-4.378-7.347-1.473-7.68ZM45.029 2.674c-2.383 1.454-.508 10.236 3.598 6.857 3.057-2.515-1.305-8.555-3.598-6.857ZM52.749 7.272c-2.732.403-3.811 8.193 1.301 7.708 3.851-.367 1.37-8.324-1.301-7.708Z"/></g></svg>