<svg width="84" height="78" fill="none" xmlns="http://www.w3.org/2000/svg"><g opacity=".3" fill="#0D96A0"><path d="M75.225 65.936c-2.743 4.646-5.487 8.182-9.77 4.331-2.205-1.98-1.69-5.572-2.055-7.768-.44-2.634-1.43-3.838.045-5.937 1.437-2.048 4.872-1.381 7.712-1.393 3.013-.014 5.12-.845 7.374 1.808 2.006 2.36 1.347 4.63-3.306 8.96ZM52.07 53.09c2.378-2.408 12.025 2.767 6.91 6.628-3.806 2.87-9.277-4.093-6.91-6.628Z"/><path d="M53.996 62.658c2.232-2.54 12.078 2.16 7.217 6.306-3.622 3.081-9.77-3.792-7.217-6.306ZM56.379 47.548c-1.204 3.202 7.231 10.267 8.648 3.907 1.054-4.735-7.714-7.277-8.648-3.907ZM67.303 46.164c-2.335 2.45 2.5 10.786 7.071 6.46 3.442-3.259-4.956-9.072-7.071-6.46ZM29.284 28.032c-2.742 4.646-5.486 8.182-9.77 4.331-2.205-1.98-1.69-5.572-2.055-7.768-.44-2.634-1.43-3.838.045-5.937 1.438-2.049 4.872-1.382 7.712-1.393 3.013-.014 5.12-.845 7.375 1.808 2.006 2.36 1.346 4.63-3.307 8.96ZM6.129 15.186c2.379-2.408 12.025 2.767 6.912 6.628-3.807 2.87-9.278-4.093-6.912-6.628Z"/><path d="M8.055 24.754c2.232-2.54 12.08 2.16 7.218 6.306-3.622 3.081-9.77-3.792-7.218-6.306ZM10.438 9.644c-1.204 3.202 7.232 10.267 8.648 3.907 1.055-4.735-7.714-7.277-8.648-3.907ZM21.362 8.26c-2.334 2.449 2.501 10.786 7.072 6.46 3.441-3.26-4.957-9.072-7.072-6.46ZM58.583 28.756c-5.02 1.973-9.36 3.07-10.365-2.602-.518-2.918 2.1-5.431 3.164-7.387 1.274-2.346 1.235-3.904 3.69-4.65 2.394-.73 4.69 1.91 6.935 3.65 2.383 1.845 4.555 2.487 4.698 5.965.128 3.094-1.79 4.478-8.122 5.024ZM48.245 4.378c3.358-.433 7.774 9.583 1.367 9.477-4.767-.082-4.791-8.937-1.367-9.477Z"/><path d="M43.873 13.104c3.323-.628 8.188 9.138 1.805 9.412-4.75.198-5.364-9.004-1.805-9.412ZM55.054 2.663c-2.92 1.783-.623 12.543 4.409 8.403 3.746-3.082-1.599-10.483-4.41-8.403ZM64.514 8.298c-3.347.493-4.67 10.04 1.595 9.445 4.719-.45 1.68-10.2-1.595-9.445Z"/></g></svg>